<?xml version="1.0" encoding="UTF-8" ?>
<!DOCTYPE svg PUBLIC "-//W3C//DTD SVG 1.1//EN" "http://www.w3.org/Graphics/SVG/1.1/DTD/svg11.dtd">
<svg width="760pt" height="563pt" viewBox="0 0 760 563" version="1.1" xmlns="http://www.w3.org/2000/svg">
<g id="#e4f2f9ff">
<path fill="#e4f2f9" opacity="1.00" d=" M 710.60 0.00 L 711.45 0.00 C 715.08 4.22 720.15 7.14 722.96 12.04 C 725.30 15.61 729.42 17.59 731.45 21.37 C 732.90 24.10 736.25 25.28 737.23 28.31 C 739.16 30.21 741.18 32.07 742.49 34.48 C 745.69 37.84 748.54 41.54 750.61 45.71 L 751.80 44.52 C 751.71 45.02 751.52 46.03 751.43 46.53 C 752.04 47.33 753.26 48.94 753.87 49.75 L 754.48 48.46 C 754.45 49.93 754.64 51.50 756.21 52.18 C 756.81 54.10 758.02 55.59 760.00 56.23 L 760.00 58.11 L 758.80 59.74 L 759.99 56.45 C 759.40 56.50 758.23 56.61 757.64 56.66 C 753.87 49.89 748.67 44.08 744.21 37.79 C 739.85 32.47 735.59 27.10 730.90 22.08 C 728.30 17.46 723.30 14.90 720.69 10.30 C 717.61 6.61 714.02 3.36 710.60 0.00 Z" />
<path fill="#e4f2f9" opacity="1.00" d=" M 270.68 253.25 C 273.12 254.81 275.59 256.43 277.31 258.81 C 282.46 265.55 286.94 272.80 292.56 279.18 C 297.64 285.52 302.73 291.84 307.85 298.14 C 309.59 299.90 307.56 302.04 306.57 303.59 C 301.38 305.73 296.65 308.80 291.38 310.75 C 285.50 313.35 279.22 314.81 272.99 316.29 C 268.08 317.26 262.88 318.42 257.97 316.77 C 257.98 316.60 258.00 316.27 258.00 316.10 C 262.23 315.82 266.61 316.73 270.72 315.40 C 272.05 315.06 273.38 314.73 274.69 314.33 C 276.36 314.08 278.04 313.85 279.68 313.45 C 280.67 313.05 281.67 312.63 282.65 312.21 C 283.06 312.12 283.87 311.95 284.28 311.86 C 286.81 311.14 289.43 310.57 291.70 309.16 C 292.11 309.14 292.93 309.10 293.34 309.07 C 294.68 307.96 296.10 306.96 297.55 306.00 C 298.01 306.04 298.92 306.12 299.37 306.16 C 300.73 305.23 302.11 304.33 303.45 303.37 C 305.18 302.97 306.90 302.23 307.95 300.73 C 308.11 298.49 305.54 297.34 304.42 295.67 C 303.54 294.23 302.51 292.91 301.48 291.59 C 300.76 290.28 299.71 289.25 298.40 288.56 C 297.76 287.56 297.12 286.57 296.48 285.59 C 295.32 283.79 293.86 282.22 292.43 280.65 C 291.14 278.37 289.19 276.59 287.39 274.73 C 286.78 273.65 286.12 272.60 285.46 271.56 C 284.27 269.83 282.90 268.25 281.67 266.57 C 281.43 265.89 280.94 264.54 280.69 263.86 C 280.36 263.91 279.71 264.02 279.38 264.08 C 278.89 262.80 278.32 261.55 277.78 260.30 C 274.81 259.31 274.35 255.48 271.27 254.51 C 271.13 254.20 270.83 253.57 270.68 253.25 Z" />
<path fill="#e4f2f9" opacity="1.00" d=" M 185.30 303.64 C 186.08 304.53 186.79 305.50 187.33 306.57 L 188.14 307.43 C 188.26 307.59 188.50 307.91 188.63 308.07 L 187.79 307.61 C 188.91 310.05 190.08 312.50 191.87 314.53 L 191.87 314.53 C 191.84 317.31 194.41 318.85 196.13 320.61 C 196.31 321.09 196.66 322.04 196.84 322.51 L 195.65 321.50 C 195.46 323.46 197.05 324.90 198.78 325.32 C 199.29 326.04 199.79 326.78 200.28 327.53 C 200.98 329.56 202.20 331.21 204.53 331.31 C 204.61 331.39 204.79 331.55 204.87 331.63 C 204.93 332.13 205.05 333.13 205.10 333.64 C 206.80 334.11 207.92 335.28 208.39 336.98 C 208.92 337.00 209.97 337.04 210.50 337.07 C 203.59 352.98 196.53 368.85 190.02 384.93 C 191.01 384.72 192.98 384.29 193.97 384.08 C 192.56 384.57 191.14 385.00 189.72 385.44 C 189.04 386.71 188.35 387.97 187.67 389.25 L 187.42 389.52 L 187.30 389.95 L 187.05 390.84 L 186.33 390.93 L 186.20 391.60 L 186.81 391.59 C 186.23 393.17 185.54 394.71 184.89 396.27 L 184.42 396.40 L 184.36 396.79 L 184.72 396.73 C 183.97 398.74 183.11 400.70 182.14 402.63 L 181.26 402.93 C 181.28 403.39 181.31 404.30 181.33 404.76 C 180.62 406.39 179.89 408.01 179.13 409.62 L 178.26 409.92 C 178.28 410.38 178.31 411.30 178.32 411.76 C 177.61 413.38 176.89 415.01 176.14 416.62 L 175.27 416.91 C 175.28 417.37 175.30 418.29 175.31 418.75 C 174.53 420.60 173.72 422.44 172.89 424.28 L 172.43 424.41 L 172.36 424.78 L 172.71 424.72 C 172.06 426.26 171.36 427.79 170.65 429.31 L 170.48 429.57 L 170.36 429.95 L 170.07 430.83 L 169.34 430.92 L 169.19 431.59 L 169.82 431.58 C 169.20 433.19 168.48 434.77 167.76 436.35 L 167.60 436.49 L 167.58 436.66 L 167.79 436.71 L 168.31 436.86 C 167.22 438.63 166.14 440.42 165.32 442.34 C 160.50 453.68 155.21 464.84 151.06 476.45 C 223.46 476.85 295.86 476.59 368.27 476.53 C 382.90 476.59 397.53 476.65 412.16 476.46 C 412.27 488.64 412.21 500.82 412.21 513.00 C 315.14 513.00 218.06 513.00 120.99 513.00 C 119.33 513.14 118.04 511.89 116.58 511.34 C 115.49 510.81 114.56 510.05 113.63 509.32 C 111.07 508.09 109.01 505.89 107.66 503.43 C 104.93 499.48 106.24 494.52 106.04 490.04 C 106.21 489.65 106.54 488.88 106.71 488.50 C 106.94 487.49 107.28 486.52 107.72 485.60 C 108.85 483.30 109.38 480.76 110.76 478.59 C 111.68 476.56 112.33 474.43 113.23 472.40 C 114.61 470.24 115.18 467.72 116.23 465.41 C 117.83 462.99 118.16 460.01 119.77 457.60 C 120.50 455.96 121.07 454.27 121.67 452.60 C 122.22 451.52 122.78 450.46 123.33 449.40 C 123.93 447.72 124.49 446.03 125.23 444.41 C 126.61 442.24 127.18 439.72 128.23 437.41 C 129.36 435.61 130.01 433.59 130.67 431.60 C 131.21 430.52 131.78 429.47 132.33 428.41 C 132.93 426.71 133.51 425.01 134.22 423.36 C 134.50 422.88 135.07 421.92 135.35 421.44 C 135.98 419.42 136.62 417.39 137.77 415.59 C 138.52 413.96 139.07 412.25 139.66 410.56 C 139.94 410.08 140.50 409.12 140.78 408.64 C 141.50 406.97 142.07 405.26 142.66 403.56 C 142.94 403.08 143.50 402.12 143.78 401.63 C 144.66 399.58 145.31 397.44 146.24 395.41 C 147.82 392.98 148.17 390.01 149.77 387.59 C 150.67 385.56 151.32 383.43 152.24 381.41 C 153.60 379.24 154.18 376.72 155.23 374.40 C 156.83 371.99 157.17 369.01 158.77 366.59 C 159.50 364.96 160.07 363.27 160.67 361.60 C 161.21 360.52 161.78 359.47 162.33 358.40 C 162.98 356.40 163.64 354.38 164.77 352.59 C 165.81 350.27 166.40 347.76 167.76 345.59 C 168.69 343.55 169.34 341.41 170.22 339.36 C 170.50 338.88 171.06 337.92 171.34 337.44 C 171.93 335.74 172.48 334.03 173.23 332.40 C 174.99 329.58 175.48 326.19 177.34 323.41 C 177.97 321.40 178.65 319.39 179.76 317.59 C 180.69 315.55 181.34 313.41 182.22 311.36 C 182.51 310.88 183.08 309.92 183.36 309.44 C 184.03 307.51 184.65 305.57 185.30 303.64 M 189.22 384.20 C 189.85 384.87 189.85 384.87 189.22 384.20 Z" />
</g>
<g id="#3391c2ff">
<path fill="#3391c2" opacity="1.00" d=" M 186.52 428.51 C 209.60 416.67 232.73 404.92 255.79 393.05 C 252.94 399.91 253.14 408.39 257.24 414.73 C 262.62 424.60 268.29 434.31 273.33 444.36 C 274.65 443.72 276.21 443.21 276.78 441.71 C 282.21 431.77 287.68 421.84 293.10 411.89 C 294.71 409.07 294.97 405.79 295.00 402.62 C 309.27 416.81 323.45 431.08 337.68 445.31 C 347.84 455.75 358.68 465.54 368.27 476.53 C 295.86 476.59 223.46 476.85 151.06 476.45 C 155.21 464.84 160.50 453.68 165.32 442.34 C 166.14 440.42 167.22 438.63 168.31 436.86 C 174.88 435.35 180.47 431.30 186.52 428.51 Z" />
<path fill="#3391c2" opacity="1.00" d=" M 271.25 393.28 C 278.24 390.56 286.26 397.76 284.08 404.96 C 282.88 412.44 272.26 415.09 267.41 409.57 C 262.27 404.94 264.57 395.19 271.25 393.28 Z" />
<path fill="#3391c2" opacity="1.00" d=" M 545.64 471.52 C 580.01 453.61 614.47 435.84 648.91 418.04 C 657.23 437.50 666.00 456.77 673.74 476.47 C 657.51 476.80 641.28 476.46 625.05 476.58 C 595.89 476.58 566.73 476.77 537.58 476.42 C 540.17 474.64 542.86 473.00 545.64 471.52 Z" />
</g>
<g id="#dfabacff">
<path fill="#dfabac" opacity="1.00" d=" M 322.41 87.13 C 329.24 86.78 336.13 87.11 342.99 87.00 L 343.07 88.00 C 344.71 88.00 346.34 88.00 347.99 88.00 L 348.07 89.00 C 349.37 89.00 350.68 89.00 351.99 89.00 L 352.07 90.00 C 352.79 90.00 354.25 90.00 354.98 90.00 L 355.04 90.86 C 356.40 90.72 357.57 91.08 358.53 91.94 C 359.68 91.97 360.83 91.99 361.99 92.00 L 362.06 93.00 C 362.54 93.00 363.50 93.00 363.98 93.00 L 364.05 93.83 C 365.70 93.86 367.20 94.49 368.68 95.18 C 370.08 95.88 371.43 96.71 372.42 97.97 C 372.98 97.98 374.11 98.00 374.67 98.01 C 375.42 99.18 376.58 99.95 377.95 100.25 L 378.10 100.68 C 380.50 100.99 381.41 103.88 383.83 104.10 C 384.51 104.97 385.01 105.94 385.33 107.00 C 385.92 107.00 387.11 106.99 387.70 106.99 C 388.38 107.75 389.06 108.51 389.74 109.28 C 390.62 111.82 393.06 113.28 394.76 115.24 C 395.29 117.24 396.85 118.79 398.87 119.26 C 399.02 120.34 399.25 121.40 399.55 122.45 C 400.70 124.24 402.36 125.64 403.41 127.50 C 403.62 128.11 404.05 129.31 404.26 129.91 L 404.72 130.06 C 405.64 132.49 407.73 134.29 408.30 136.92 L 409.00 137.03 C 409.00 137.76 409.00 139.21 409.00 139.94 L 409.99 140.01 C 410.01 140.63 410.05 141.86 410.07 142.47 C 411.40 143.40 410.88 145.12 411.16 146.48 C 411.90 147.48 412.23 148.64 412.14 149.95 L 412.99 150.03 C 413.00 151.17 413.02 152.32 413.06 153.47 C 413.78 154.32 414.19 155.33 414.27 156.48 C 414.76 157.43 415.09 158.43 415.27 159.49 C 416.65 161.35 415.79 163.80 416.00 165.93 L 417.00 166.01 C 417.00 166.66 417.01 167.94 417.01 168.59 C 418.66 170.07 420.24 171.63 421.76 173.24 C 422.65 176.36 426.27 177.54 427.32 180.57 C 428.15 183.52 431.36 184.82 432.29 187.68 C 433.99 189.38 435.88 191.02 436.71 193.35 C 437.50 195.38 439.28 196.72 440.76 198.24 C 441.89 201.76 446.03 203.12 447.32 206.57 C 448.23 209.20 450.82 210.72 451.72 213.36 C 453.28 216.71 456.71 218.61 458.97 221.45 C 458.94 221.94 458.87 222.92 458.83 223.41 C 454.91 221.69 452.93 217.69 450.21 214.63 C 447.35 211.45 445.94 207.27 443.02 204.15 C 432.75 193.28 425.83 179.67 415.05 169.25 C 414.84 166.28 414.36 163.31 413.58 160.43 C 410.91 151.59 409.22 142.35 404.71 134.18 C 400.28 126.52 395.90 118.65 389.38 112.51 C 381.92 104.34 372.01 98.93 361.81 94.93 C 351.36 91.29 340.15 88.36 329.03 90.13 C 321.75 90.66 314.34 90.07 307.18 91.83 C 300.11 93.81 292.87 95.40 286.22 98.63 C 280.26 101.49 273.70 103.36 268.52 107.60 C 262.47 112.31 255.46 115.66 249.65 120.70 C 246.62 123.41 242.96 125.33 240.12 128.25 C 232.98 136.71 225.10 144.53 218.16 153.15 C 214.73 158.77 210.80 164.06 207.54 169.77 C 205.02 173.43 201.64 176.57 200.19 180.89 C 197.20 189.36 192.71 197.22 190.08 205.84 C 187.79 211.11 185.84 216.54 184.50 222.14 C 183.28 227.08 182.81 232.21 181.10 237.02 C 180.92 234.02 181.00 231.02 181.00 228.02 L 181.94 227.94 C 182.16 226.45 181.46 224.54 182.90 223.47 C 183.08 221.80 182.60 219.93 183.70 218.49 C 184.12 216.98 184.66 215.51 185.16 214.02 L 185.94 213.93 C 186.17 212.44 185.43 210.50 186.94 209.47 C 186.95 208.86 186.99 207.63 187.01 207.01 L 188.00 206.93 C 188.00 205.63 188.00 204.33 188.00 203.03 L 188.68 202.91 C 188.99 202.29 189.60 201.07 189.90 200.45 C 189.93 199.85 189.99 198.64 190.02 198.03 L 190.77 197.93 C 191.54 196.14 192.15 194.29 192.08 192.31 C 193.14 191.54 193.87 190.47 194.22 189.22 C 194.63 188.83 195.45 188.06 195.85 187.68 C 195.87 186.53 196.15 185.47 196.69 184.49 C 197.02 183.04 197.60 181.69 198.22 180.35 C 199.02 178.98 199.70 177.54 200.25 176.06 L 200.68 175.90 C 201.25 173.09 204.36 171.98 205.33 169.38 C 205.96 168.03 206.61 166.69 207.23 165.33 C 208.09 163.55 209.48 162.08 210.26 160.25 C 211.47 159.02 212.90 157.84 213.28 156.06 L 213.68 155.90 C 214.12 154.12 215.67 152.96 216.24 151.25 C 218.19 148.88 221.16 147.23 222.25 144.25 C 224.78 141.14 228.51 138.96 230.29 135.30 C 232.74 133.99 235.40 131.97 236.09 129.17 C 236.91 128.60 237.77 128.11 238.69 127.71 C 239.27 125.80 240.84 124.52 242.27 123.24 C 243.94 122.77 245.07 121.44 246.25 120.26 C 247.92 119.76 249.07 118.45 250.25 117.25 C 251.42 116.86 252.41 116.12 253.32 115.30 C 255.61 114.37 256.95 112.02 259.36 111.29 C 260.48 110.84 261.39 110.05 262.32 109.31 C 264.36 108.49 265.72 106.72 267.23 105.23 C 268.99 104.73 270.09 103.06 271.90 102.68 L 272.04 102.19 C 273.34 101.73 274.62 101.20 275.93 100.75 L 276.03 100.11 C 277.20 100.07 278.33 99.81 279.40 99.34 C 279.90 99.08 280.88 98.57 281.38 98.31 C 282.55 97.80 283.57 97.03 284.35 96.00 C 284.99 96.00 286.29 96.00 286.93 96.00 L 287.01 95.00 C 288.31 95.00 289.62 95.00 290.93 95.00 L 291.02 94.00 C 291.50 94.00 292.45 94.00 292.93 94.00 L 293.01 93.01 C 293.62 92.99 294.85 92.95 295.47 92.93 C 296.43 92.09 297.59 91.73 298.95 91.86 L 299.02 91.00 C 300.50 91.00 301.98 90.99 303.46 90.94 C 304.32 90.21 305.32 89.81 306.48 89.73 C 308.20 88.42 310.48 89.17 312.47 88.93 C 314.90 86.92 318.54 88.47 321.47 87.96 L 322.41 87.13 Z" />
<path fill="#dfabac" opacity="1.00" d=" M 306.64 116.82 C 314.06 116.16 321.53 114.95 328.97 115.94 C 332.09 116.35 335.22 116.58 338.36 116.78 C 351.16 119.71 362.08 128.50 368.89 139.57 C 373.55 147.38 375.81 156.33 377.92 165.09 C 379.16 176.45 378.79 188.04 376.65 199.28 C 375.98 199.51 374.62 199.96 373.94 200.19 C 365.21 195.54 355.26 194.37 346.02 191.11 C 337.33 188.27 328.34 186.51 319.63 183.78 C 313.34 181.95 306.39 180.45 300.00 182.67 C 288.12 187.19 278.93 196.64 272.02 207.05 C 269.18 211.25 268.32 216.33 266.93 221.11 C 265.67 226.31 263.92 231.72 265.17 237.11 C 265.79 241.33 267.59 245.24 269.89 248.80 C 269.90 249.52 269.92 250.98 269.93 251.71 C 268.67 249.95 267.42 248.18 266.07 246.49 C 266.02 246.04 265.91 245.13 265.86 244.68 C 265.41 243.68 264.97 242.68 264.56 241.67 C 264.20 240.04 263.96 238.40 263.71 236.76 C 262.64 234.05 262.56 230.90 263.77 228.22 C 263.95 226.23 264.01 224.20 264.63 222.28 C 264.96 220.96 265.27 219.65 265.65 218.35 C 265.97 217.34 266.32 216.33 266.67 215.34 C 267.04 214.31 267.44 213.30 267.86 212.29 C 267.93 211.37 268.00 210.44 268.07 209.52 C 269.66 207.60 271.01 205.50 272.33 203.38 C 273.43 202.08 274.50 200.76 275.35 199.29 C 279.16 195.16 283.21 191.26 287.22 187.32 C 288.96 186.32 290.64 185.22 292.38 184.21 C 293.74 183.59 295.08 182.94 296.43 182.30 C 296.96 182.00 298.02 181.39 298.56 181.09 C 298.98 181.00 299.82 180.83 300.25 180.74 C 304.87 179.43 310.03 179.66 314.72 180.61 C 316.05 180.98 317.40 181.32 318.72 181.76 C 319.14 181.86 319.97 182.06 320.39 182.16 C 321.79 182.71 323.23 183.18 324.65 183.72 C 325.67 184.05 326.69 184.39 327.70 184.76 C 329.38 184.97 331.08 185.16 332.72 185.63 C 334.03 185.95 335.35 186.27 336.66 186.64 C 337.66 186.98 338.66 187.34 339.67 187.71 C 341.03 188.01 342.39 188.31 343.74 188.71 C 345.85 188.86 347.93 189.26 349.79 190.33 C 351.39 190.84 353.04 191.19 354.66 191.66 C 355.67 192.00 356.67 192.35 357.68 192.72 C 359.00 192.99 360.34 193.27 361.65 193.62 C 362.66 193.96 363.66 194.31 364.66 194.68 C 365.68 195.04 366.69 195.43 367.70 195.84 C 368.15 195.88 369.04 195.97 369.48 196.02 C 370.02 196.40 371.09 197.15 371.63 197.53 C 372.87 197.75 374.33 198.39 375.47 197.45 C 376.80 194.18 375.01 190.34 376.87 187.20 C 377.07 180.41 377.08 173.59 376.86 166.80 C 376.03 165.21 375.97 163.42 375.77 161.69 C 375.39 160.68 375.03 159.67 374.69 158.66 C 374.32 157.66 373.97 156.66 373.63 155.66 C 373.26 154.34 372.98 153.01 372.69 151.69 C 372.37 150.63 372.08 149.57 371.81 148.51 C 370.65 146.52 369.34 144.61 368.21 142.60 C 367.92 142.06 367.33 140.97 367.04 140.43 C 367.03 139.93 366.99 138.95 366.98 138.45 C 365.73 137.23 364.50 136.00 363.32 134.72 C 362.33 132.44 360.56 130.62 358.25 129.69 C 355.90 127.37 353.65 124.75 350.35 123.80 C 348.97 123.01 347.66 122.10 346.41 121.12 C 345.97 121.06 345.07 120.93 344.62 120.86 C 343.60 120.44 342.58 120.04 341.56 119.66 C 340.26 119.29 338.94 118.98 337.63 118.66 C 335.19 117.93 332.52 118.25 330.20 117.13 C 324.27 117.30 318.08 116.13 312.33 117.77 C 311.47 117.93 310.61 118.10 309.76 118.26 C 308.14 118.89 306.41 119.04 304.71 119.25 C 302.94 119.80 301.14 120.22 299.38 120.80 C 298.96 120.90 298.11 121.09 297.69 121.19 C 296.32 121.73 294.93 122.19 293.56 122.69 C 293.03 123.01 291.97 123.65 291.45 123.96 C 290.99 124.00 290.09 124.06 289.63 124.10 C 287.97 125.02 286.28 125.88 284.58 126.73 C 282.13 127.88 279.89 129.40 277.62 130.86 C 277.08 131.05 276.00 131.42 275.45 131.61 C 272.88 133.26 271.14 135.93 268.41 137.35 C 267.16 138.43 265.95 139.57 264.75 140.70 C 263.24 141.55 261.79 142.50 260.28 143.34 C 258.76 144.78 257.27 146.26 255.71 147.67 C 253.01 149.03 250.83 151.28 249.52 154.00 C 249.14 154.00 248.38 154.01 248.00 154.01 C 248.00 154.51 248.00 155.51 248.00 156.01 C 247.59 156.00 246.78 156.00 246.37 156.00 C 245.38 160.65 240.68 162.72 238.66 166.74 C 236.62 168.95 234.32 170.95 232.61 173.45 C 232.42 174.01 232.05 175.13 231.86 175.69 C 230.57 177.70 229.06 179.56 227.74 181.54 C 226.43 183.91 224.91 186.15 223.72 188.59 C 222.45 191.41 220.76 194.01 219.03 196.58 C 219.01 197.05 218.97 197.99 218.95 198.46 C 217.89 199.72 216.97 201.09 216.14 202.51 C 215.94 203.90 215.76 205.29 215.41 206.66 C 215.04 207.65 214.67 208.65 214.28 209.64 C 213.98 210.64 213.66 211.63 213.33 212.62 C 212.87 213.98 212.35 215.31 211.83 216.64 C 211.27 217.62 210.72 218.60 210.18 219.59 C 209.93 220.94 209.74 222.31 209.40 223.65 C 209.04 224.66 208.67 225.66 208.30 226.67 C 207.97 228.05 207.67 229.44 207.19 230.79 C 206.97 233.14 207.29 235.64 206.14 237.81 C 205.81 240.80 206.63 244.04 205.13 246.80 C 204.94 251.60 204.93 256.40 205.14 261.20 C 206.14 263.05 206.01 265.19 206.24 267.22 C 207.08 269.11 207.03 271.20 207.25 273.22 C 208.07 275.51 208.03 277.98 208.49 280.35 C 208.81 280.86 209.46 281.88 209.79 282.40 C 211.01 285.11 212.42 287.74 213.72 290.42 C 214.85 293.07 216.73 295.25 218.37 297.58 C 219.80 299.18 221.25 300.77 222.46 302.55 C 224.63 303.96 226.44 305.82 228.26 307.65 C 230.36 308.90 232.42 310.20 234.57 311.38 C 235.52 311.67 236.48 311.96 237.44 312.24 C 238.83 312.75 240.25 313.20 241.65 313.72 C 242.66 314.02 243.67 314.34 244.68 314.68 C 246.06 315.02 247.45 315.34 248.79 315.85 C 251.71 316.05 254.72 315.66 257.53 316.67 C 253.18 318.53 248.37 317.71 243.99 316.49 C 238.79 314.88 233.38 313.34 228.97 310.01 C 220.60 303.71 212.96 295.80 209.15 285.87 C 205.45 277.06 204.43 267.45 203.46 258.04 C 202.70 248.68 204.91 239.50 205.73 230.23 C 206.74 224.60 208.72 219.18 210.91 213.91 C 213.43 208.25 214.10 201.87 217.52 196.60 C 221.59 189.97 224.05 182.40 229.04 176.35 C 232.17 171.20 235.84 166.39 240.11 162.14 C 244.02 158.58 245.91 153.37 250.06 150.02 C 256.92 144.21 263.44 137.94 270.95 132.94 C 274.76 129.47 279.49 127.41 283.96 124.96 C 290.88 120.71 298.94 119.05 306.64 116.82 Z" />
</g>
<g id="#c64a4dff">
<path fill="#c64a4d" opacity="1.00" d=" M 329.03 90.13 C 340.15 88.36 351.36 91.29 361.81 94.93 C 372.01 98.93 381.92 104.34 389.38 112.51 C 395.90 118.65 400.28 126.52 404.71 134.18 C 409.22 142.35 410.91 151.59 413.58 160.43 C 414.36 163.31 414.84 166.28 415.05 169.25 C 414.38 176.49 415.78 183.73 415.05 190.97 C 414.19 200.71 413.70 210.62 410.83 220.03 C 408.89 226.25 408.15 232.79 405.72 238.86 C 403.96 243.87 401.01 248.34 399.24 253.34 C 397.26 259.81 393.21 265.33 390.25 271.36 C 387.11 275.05 384.67 279.18 382.47 283.48 C 378.22 288.27 375.09 293.97 370.39 298.37 C 366.23 302.27 363.47 307.56 358.43 310.48 C 352.56 314.17 349.52 321.02 343.29 324.22 C 339.95 326.09 337.35 328.92 334.35 331.23 C 323.61 338.62 311.43 343.44 299.41 348.28 C 294.70 349.83 289.94 351.26 285.02 351.95 C 274.92 353.18 264.56 356.25 254.43 353.58 C 249.29 351.40 243.47 351.45 238.51 348.76 C 229.05 345.24 219.11 341.68 211.78 334.44 C 209.23 332.22 206.27 330.48 203.99 327.95 C 197.58 320.93 193.84 312.08 189.10 303.96 C 188.32 302.52 187.71 300.99 187.20 299.45 C 186.84 293.06 183.78 287.27 182.94 280.98 C 180.13 262.97 181.56 244.57 184.62 226.70 C 185.60 219.52 189.06 213.00 190.08 205.84 C 192.71 197.22 197.20 189.36 200.19 180.89 C 201.64 176.57 205.02 173.43 207.54 169.77 C 210.80 164.06 214.73 158.77 218.16 153.15 C 225.10 144.53 232.98 136.71 240.12 128.25 C 242.96 125.33 246.62 123.41 249.65 120.70 C 255.46 115.66 262.47 112.31 268.52 107.60 C 273.70 103.36 280.26 101.49 286.22 98.63 C 292.87 95.40 300.11 93.81 307.18 91.83 C 314.34 90.07 321.75 90.66 329.03 90.13 M 311.43 111.50 C 306.29 113.30 300.65 113.23 295.79 115.83 C 292.92 117.30 289.28 116.56 286.75 118.75 C 283.54 121.25 279.52 122.21 276.02 124.18 C 271.35 127.23 267.54 131.69 262.25 133.76 C 259.15 136.72 255.75 139.38 252.82 142.53 C 252.40 142.52 251.56 142.49 251.14 142.48 C 249.47 145.55 246.95 147.92 244.27 150.10 C 238.01 159.74 228.94 167.35 223.62 177.66 C 220.07 182.90 218.03 188.97 214.27 194.10 C 212.53 198.60 209.29 202.80 209.38 207.78 C 208.72 208.66 208.05 209.53 207.39 210.41 C 207.30 211.87 207.21 213.32 207.10 214.78 C 204.90 216.55 205.31 219.46 204.72 221.93 C 203.93 224.29 202.24 226.40 202.26 229.00 C 202.22 232.15 201.42 235.19 200.46 238.17 C 199.73 242.97 200.59 247.89 199.60 252.69 C 198.61 257.15 200.45 261.54 200.27 266.02 C 200.33 273.55 204.26 280.24 205.66 287.50 C 207.13 290.34 208.61 293.18 209.98 296.08 C 212.64 299.99 216.09 303.30 218.91 307.10 C 220.00 308.69 221.69 309.63 223.33 310.57 C 229.76 316.84 238.69 319.25 247.05 321.75 C 253.33 321.79 259.56 322.99 265.85 322.57 C 268.12 322.20 270.34 321.58 272.64 321.43 C 273.40 320.94 274.16 320.45 274.92 319.96 C 278.70 320.01 282.50 319.46 285.88 317.69 C 289.93 315.54 295.01 315.88 298.50 312.62 C 299.17 312.58 299.85 312.53 300.53 312.49 C 303.82 309.60 308.74 309.12 311.26 305.30 C 312.71 302.91 317.52 302.74 316.26 299.16 C 314.53 300.18 312.67 301.01 310.62 300.93 C 322.02 290.91 336.19 283.06 343.45 269.18 C 348.14 262.21 354.32 256.16 357.47 248.24 C 361.74 240.92 365.44 233.28 368.77 225.50 C 372.65 217.18 374.07 208.03 376.65 199.28 C 378.79 188.04 379.16 176.45 377.92 165.09 C 375.81 156.33 373.55 147.38 368.89 139.57 C 371.49 138.02 370.78 134.81 369.10 132.85 C 362.94 124.85 354.76 118.28 345.31 114.59 C 339.00 111.76 331.98 111.78 325.27 110.64 C 320.67 111.00 316.02 111.01 311.43 111.50 Z" />
<path fill="#c64a4d" opacity="1.00" d=" M 300.00 182.67 C 306.39 180.45 313.34 181.95 319.63 183.78 C 321.15 184.82 322.61 185.93 324.09 187.04 C 326.82 193.33 330.20 200.01 329.08 207.08 C 327.96 215.30 325.54 223.43 321.65 230.77 C 314.25 241.06 304.72 250.54 292.46 254.70 C 287.71 255.87 282.74 255.62 277.91 255.33 C 274.07 255.19 272.05 251.43 269.89 248.80 C 267.59 245.24 265.79 241.33 265.17 237.11 C 263.92 231.72 265.67 226.31 266.93 221.11 C 268.32 216.33 269.18 211.25 272.02 207.05 C 278.93 196.64 288.12 187.19 300.00 182.67 Z" />
<path fill="#c64a4d" opacity="1.00" d=" M 469.45 242.76 C 470.86 243.31 472.29 243.87 473.73 244.38 C 478.05 249.27 481.78 254.62 485.88 259.68 C 488.75 263.42 491.40 267.33 493.65 271.48 C 496.19 276.43 501.23 279.81 502.71 285.35 C 506.23 301.58 506.70 318.66 502.88 334.89 C 501.72 340.62 498.51 345.57 496.43 350.96 C 494.55 356.92 489.67 361.13 485.48 365.50 C 480.95 370.14 474.90 372.80 469.91 376.87 C 467.23 379.33 463.47 379.41 460.16 380.41 C 456.83 381.28 453.53 382.85 450.01 382.38 C 443.97 381.69 437.92 380.93 432.02 379.43 C 425.72 377.87 419.41 376.08 412.88 375.80 C 407.34 375.83 401.82 375.20 396.54 373.48 C 394.38 372.82 392.23 372.16 390.08 371.51 C 390.45 371.28 391.20 370.81 391.57 370.58 C 400.02 370.96 408.32 368.94 416.49 367.10 C 423.64 364.20 430.98 361.62 437.66 357.71 C 447.99 352.24 456.50 343.68 462.63 333.81 C 465.07 328.43 469.05 323.74 470.32 317.87 C 472.31 308.68 474.94 299.48 474.59 289.98 C 474.34 281.82 475.40 273.50 473.42 265.48 C 471.55 258.00 471.55 250.20 469.45 242.76 Z" />
<path fill="#c64a4d" opacity="1.00" d=" M 542.69 295.86 C 547.01 285.21 556.74 276.70 568.05 274.35 C 574.78 274.18 581.84 273.39 588.29 275.84 C 593.97 277.90 598.40 282.20 602.38 286.60 C 607.11 291.84 610.11 298.87 609.83 306.00 C 609.64 311.14 610.67 316.64 608.01 321.35 C 603.99 330.07 598.70 338.15 594.51 346.81 C 588.64 356.63 583.56 366.91 577.79 376.79 C 577.08 378.65 574.80 378.01 573.32 377.68 C 564.14 360.62 554.62 343.72 545.28 326.75 C 542.62 322.33 540.88 317.27 541.01 312.06 C 541.08 306.65 540.45 300.96 542.69 295.86 M 559.16 309.96 C 558.52 315.84 562.98 320.25 567.31 323.42 C 571.24 325.41 575.84 324.74 580.09 324.70 C 585.53 323.69 589.15 318.88 591.43 314.15 C 592.07 310.36 591.95 306.66 591.45 302.87 C 589.75 299.61 587.17 296.93 584.40 294.56 C 580.61 291.72 575.53 292.26 571.09 292.54 C 563.68 294.51 557.82 302.13 559.16 309.96 Z" />
<path fill="#c64a4d" opacity="1.00" d=" M 464.50 397.94 C 466.93 389.75 473.79 383.20 481.83 380.53 C 488.73 379.84 496.50 379.22 502.42 383.61 C 506.83 386.98 510.99 391.18 512.78 396.57 C 514.14 399.87 513.83 403.51 513.88 407.00 C 514.41 414.75 508.95 420.94 505.71 427.51 C 500.82 437.03 495.26 446.21 490.55 455.82 C 489.38 455.61 487.53 456.38 486.93 454.98 C 481.54 444.45 475.56 434.24 470.02 423.78 C 467.83 419.34 464.33 415.25 464.16 410.09 C 464.03 406.05 463.76 401.94 464.50 397.94 M 483.37 394.45 C 479.29 396.67 476.54 401.25 477.23 405.96 C 476.60 410.74 480.36 414.50 484.16 416.68 C 486.80 417.58 489.70 417.44 492.44 417.14 C 497.36 415.46 501.53 410.51 500.75 405.06 C 501.53 400.22 497.72 396.43 493.96 394.14 C 490.59 393.10 486.62 392.91 483.37 394.45 Z" />
<path fill="#c64a4d" opacity="1.00" d=" M 255.79 393.05 C 259.05 387.61 264.40 382.86 270.93 382.23 C 275.00 381.96 279.31 381.85 283.10 383.59 C 290.11 387.14 295.52 394.50 295.00 402.62 C 294.97 405.79 294.71 409.07 293.10 411.89 C 287.68 421.84 282.21 431.77 276.78 441.71 C 276.21 443.21 274.65 443.72 273.33 444.36 C 268.29 434.31 262.62 424.60 257.24 414.73 C 253.14 408.39 252.94 399.91 255.79 393.05 M 271.25 393.28 C 264.57 395.19 262.27 404.94 267.41 409.57 C 272.26 415.09 282.88 412.44 284.08 404.96 C 286.26 397.76 278.24 390.56 271.25 393.28 Z" />
</g>
<g id="#25935fff">
<path fill="#25935f" opacity="1.00" d=" M 515.54 259.91 C 535.69 259.46 555.85 259.91 576.00 259.61 C 578.14 259.79 581.21 259.22 582.16 261.76 C 584.45 266.33 586.14 271.19 588.29 275.84 C 581.84 273.39 574.78 274.18 568.05 274.35 C 556.74 276.70 547.01 285.21 542.69 295.86 C 540.45 300.96 541.08 306.65 541.01 312.06 C 540.88 317.27 542.62 322.33 545.28 326.75 C 554.62 343.72 564.14 360.62 573.32 377.68 C 574.80 378.01 577.08 378.65 577.79 376.79 C 583.56 366.91 588.64 356.63 594.51 346.81 C 598.70 338.15 603.99 330.07 608.01 321.35 C 608.56 322.96 609.14 324.56 609.80 326.14 C 618.21 345.75 626.59 365.38 634.99 385.00 C 619.57 392.40 604.48 400.46 589.32 408.36 C 545.42 430.98 501.59 453.72 457.79 476.51 C 445.19 476.68 432.59 476.73 419.99 476.42 C 417.56 473.93 415.16 471.42 412.63 469.04 C 413.26 438.52 413.02 407.98 412.98 377.46 C 423.41 379.20 433.48 382.68 444.00 384.00 C 452.77 385.83 461.59 382.67 469.61 379.38 C 480.04 373.01 491.20 366.02 496.65 354.60 C 498.60 347.72 503.75 342.23 505.00 335.11 C 508.04 320.97 508.62 306.19 505.93 291.95 C 506.29 283.57 500.93 276.40 495.12 270.93 C 501.53 266.54 508.62 263.38 515.54 259.91 M 464.50 397.94 C 463.76 401.94 464.03 406.05 464.16 410.09 C 464.33 415.25 467.83 419.34 470.02 423.78 C 475.56 434.24 481.54 444.45 486.93 454.98 C 487.53 456.38 489.38 455.61 490.55 455.82 C 495.26 446.21 500.82 437.03 505.71 427.51 C 508.95 420.94 514.41 414.75 513.88 407.00 C 513.83 403.51 514.14 399.87 512.78 396.57 C 510.99 391.18 506.83 386.98 502.42 383.61 C 496.50 379.22 488.73 379.84 481.83 380.53 C 473.79 383.20 466.93 389.75 464.50 397.94 Z" />
<path fill="#25935f" opacity="1.00" d=" M 559.16 309.96 C 557.82 302.13 563.68 294.51 571.09 292.54 C 575.53 292.26 580.61 291.72 584.40 294.56 C 587.17 296.93 589.75 299.61 591.45 302.87 C 591.95 306.66 592.07 310.36 591.43 314.15 C 589.15 318.88 585.53 323.69 580.09 324.70 C 575.84 324.74 571.24 325.41 567.31 323.42 C 562.98 320.25 558.52 315.84 559.16 309.96 Z" />
<path fill="#25935f" opacity="1.00" d=" M 210.50 337.07 L 210.89 336.24 C 215.77 339.66 220.33 343.67 225.90 345.98 C 234.19 349.71 242.47 353.73 251.62 354.77 C 232.33 364.40 213.30 374.58 193.97 384.08 C 192.98 384.29 191.01 384.72 190.02 384.93 C 196.53 368.85 203.59 352.98 210.50 337.07 Z" />
<path fill="#25935f" opacity="1.00" d=" M 483.37 394.45 C 486.62 392.91 490.59 393.10 493.96 394.14 C 497.72 396.43 501.53 400.22 500.75 405.06 C 501.53 410.51 497.36 415.46 492.44 417.14 C 489.70 417.44 486.80 417.58 484.16 416.68 C 480.36 414.50 476.60 410.74 477.23 405.96 C 476.54 401.25 479.29 396.67 483.37 394.45 Z" />
</g>
<g id="#c23c3fff">
<path fill="#c23c3f" opacity="1.00" d=" M 311.43 111.50 C 316.02 111.01 320.67 111.00 325.27 110.64 C 331.98 111.78 339.00 111.76 345.31 114.59 C 354.76 118.28 362.94 124.85 369.10 132.85 C 370.78 134.81 371.49 138.02 368.89 139.57 C 362.08 128.50 351.16 119.71 338.36 116.78 C 328.23 113.09 316.84 113.72 306.64 116.82 C 298.94 119.05 290.88 120.71 283.96 124.96 C 279.49 127.41 274.76 129.47 270.95 132.94 C 263.44 137.94 256.92 144.21 250.06 150.02 C 245.91 153.37 244.02 158.58 240.11 162.14 C 235.84 166.39 232.17 171.20 229.04 176.35 C 224.05 182.40 221.59 189.97 217.52 196.60 C 214.10 201.87 213.43 208.25 210.91 213.91 C 208.72 219.18 206.74 224.60 205.73 230.23 C 204.91 239.50 202.70 248.68 203.46 258.04 C 204.43 267.45 205.45 277.06 209.15 285.87 C 212.96 295.80 220.60 303.71 228.97 310.01 C 233.38 313.34 238.79 314.88 243.99 316.49 C 248.37 317.71 253.18 318.53 257.53 316.67 L 257.97 316.77 C 262.88 318.42 268.08 317.26 272.99 316.29 C 279.22 314.81 285.50 313.35 291.38 310.75 C 296.65 308.80 301.38 305.73 306.57 303.59 C 308.06 302.94 309.42 302.03 310.62 300.93 C 312.67 301.01 314.53 300.18 316.26 299.16 C 317.52 302.74 312.71 302.91 311.26 305.30 C 308.74 309.12 303.82 309.60 300.53 312.49 C 299.85 312.53 299.17 312.58 298.50 312.62 C 295.01 315.88 289.93 315.54 285.88 317.69 C 282.50 319.46 278.70 320.01 274.92 319.96 C 274.16 320.45 273.40 320.94 272.64 321.43 C 270.34 321.58 268.12 322.20 265.85 322.57 C 259.56 322.99 253.33 321.79 247.05 321.75 C 238.69 319.25 229.76 316.84 223.33 310.57 C 221.69 309.63 220.00 308.69 218.91 307.10 C 216.09 303.30 212.64 299.99 209.98 296.08 C 208.61 293.18 207.13 290.34 205.66 287.50 C 204.26 280.24 200.33 273.55 200.27 266.02 C 200.45 261.54 198.61 257.15 199.60 252.69 C 200.59 247.89 199.73 242.97 200.46 238.17 C 201.42 235.19 202.22 232.15 202.26 229.00 C 202.24 226.40 203.93 224.29 204.72 221.93 C 205.31 219.46 204.90 216.55 207.10 214.78 C 207.21 213.32 207.30 211.87 207.39 210.41 C 208.05 209.53 208.72 208.66 209.38 207.78 C 209.29 202.80 212.53 198.60 214.27 194.10 C 218.03 188.97 220.07 182.90 223.62 177.66 C 228.94 167.35 238.01 159.74 244.27 150.10 C 246.95 147.92 249.47 145.55 251.14 142.48 C 251.56 142.49 252.40 142.52 252.82 142.53 C 255.75 139.38 259.15 136.72 262.25 133.76 C 267.54 131.69 271.35 127.23 276.02 124.18 C 279.52 122.21 283.54 121.25 286.75 118.75 C 289.28 116.56 292.92 117.30 295.79 115.83 C 300.65 113.23 306.29 113.30 311.43 111.50 Z" />
</g>
<g id="#d27375ff">
<path fill="#d27375" opacity="1.00" d=" M 306.64 116.82 C 316.84 113.72 328.23 113.09 338.36 116.78 C 335.22 116.58 332.09 116.35 328.97 115.94 C 321.53 114.95 314.06 116.16 306.64 116.82 Z" />
</g>
<g id="#dd8b8dff">
<path fill="#dd8b8d" opacity="1.00" d=" M 415.05 190.97 C 415.78 183.73 414.38 176.49 415.05 169.25 C 425.83 179.67 432.75 193.28 443.02 204.15 C 445.94 207.27 447.35 211.45 450.21 214.63 C 452.93 217.69 454.91 221.69 458.83 223.41 C 464.05 230.22 469.59 236.83 473.73 244.38 C 472.29 243.87 470.86 243.31 469.45 242.76 C 471.55 250.20 471.55 258.00 473.42 265.48 C 475.40 273.50 474.34 281.82 474.59 289.98 C 474.94 299.48 472.31 308.68 470.32 317.87 C 469.05 323.74 465.07 328.43 462.63 333.81 C 456.50 343.68 447.99 352.24 437.66 357.71 C 430.98 361.62 423.64 364.20 416.49 367.10 C 408.32 368.94 400.02 370.96 391.57 370.58 C 373.71 366.06 355.82 361.66 337.79 357.89 C 333.52 357.27 329.18 357.16 324.88 357.55 C 325.94 356.94 326.98 356.30 328.02 355.66 C 318.41 353.63 308.36 352.52 299.41 348.28 C 311.43 343.44 323.61 338.62 334.35 331.23 C 337.35 328.92 339.95 326.09 343.29 324.22 C 349.52 321.02 352.56 314.17 358.43 310.48 C 363.47 307.56 366.23 302.27 370.39 298.37 C 375.09 293.97 378.22 288.27 382.47 283.48 C 384.67 279.18 387.11 275.05 390.25 271.36 C 393.21 265.33 397.26 259.81 399.24 253.34 C 401.01 248.34 403.96 243.87 405.72 238.86 C 408.15 232.79 408.89 226.25 410.83 220.03 C 413.70 210.62 414.19 200.71 415.05 190.97 Z" />
<path fill="#dd8b8d" opacity="1.00" d=" M 319.63 183.78 C 328.34 186.51 337.33 188.27 346.02 191.11 C 355.26 194.37 365.21 195.54 373.94 200.19 C 374.62 199.96 375.98 199.51 376.65 199.28 C 374.07 208.03 372.65 217.18 368.77 225.50 C 365.44 233.28 361.74 240.92 357.47 248.24 C 354.32 256.16 348.14 262.21 343.45 269.18 C 336.19 283.06 322.02 290.91 310.62 300.93 C 309.42 302.03 308.06 302.94 306.57 303.59 C 307.56 302.04 309.59 299.90 307.85 298.14 C 302.73 291.84 297.64 285.52 292.56 279.18 C 286.94 272.80 282.46 265.55 277.31 258.81 C 275.59 256.43 273.12 254.81 270.68 253.25 L 270.27 252.44 C 270.18 252.25 270.01 251.89 269.93 251.71 C 269.92 250.98 269.90 249.52 269.89 248.80 C 272.05 251.43 274.07 255.19 277.91 255.33 C 282.74 255.62 287.71 255.87 292.46 254.70 C 304.72 250.54 314.25 241.06 321.65 230.77 C 325.54 223.43 327.96 215.30 329.08 207.08 C 330.20 200.01 326.82 193.33 324.09 187.04 C 322.61 185.93 321.15 184.82 319.63 183.78 Z" />
</g>
<g id="#e0c056ff">
<path fill="#e0c056" opacity="1.00" d=" M 485.88 259.68 C 495.77 259.62 505.66 259.44 515.54 259.91 C 508.62 263.38 501.53 266.54 495.12 270.93 C 494.75 271.07 494.02 271.34 493.65 271.48 C 491.40 267.33 488.75 263.42 485.88 259.68 Z" />
<path fill="#e0c056" opacity="1.00" d=" M 285.02 351.95 C 289.94 351.26 294.70 349.83 299.41 348.28 C 308.36 352.52 318.41 353.63 328.02 355.66 C 326.98 356.30 325.94 356.94 324.88 357.55 C 319.96 360.42 314.47 362.38 309.98 365.94 C 310.78 367.41 311.81 368.76 312.94 370.00 C 340.23 397.06 367.40 424.24 394.53 451.47 C 400.41 457.48 406.44 463.34 412.63 469.04 C 415.16 471.42 417.56 473.93 419.99 476.42 C 417.37 476.39 414.77 476.42 412.16 476.46 C 397.53 476.65 382.90 476.59 368.27 476.53 C 358.68 465.54 347.84 455.75 337.68 445.31 C 323.45 431.08 309.27 416.81 295.00 402.62 C 295.52 394.50 290.11 387.14 283.10 383.59 C 279.31 381.85 275.00 381.96 270.93 382.23 C 264.40 382.86 259.05 387.61 255.79 393.05 C 232.73 404.92 209.60 416.67 186.52 428.51 C 180.47 431.30 174.88 435.35 168.31 436.86 L 167.79 436.71 L 167.76 436.35 C 168.48 434.77 169.20 433.19 169.82 431.58 L 170.07 430.83 L 170.36 429.95 L 170.54 429.63 L 170.65 429.31 C 171.36 427.79 172.06 426.26 172.71 424.72 L 172.89 424.28 C 173.72 422.44 174.53 420.60 175.31 418.75 C 175.52 418.22 175.93 417.15 176.14 416.62 C 176.89 415.01 177.61 413.38 178.32 411.76 C 178.52 411.22 178.93 410.15 179.13 409.62 C 179.89 408.01 180.62 406.39 181.33 404.76 C 181.53 404.23 181.94 403.16 182.14 402.63 C 183.11 400.70 183.97 398.74 184.72 396.73 L 184.89 396.27 C 185.54 394.71 186.23 393.17 186.81 391.59 L 187.05 390.84 L 187.30 389.95 L 187.56 389.63 L 187.67 389.25 C 188.35 387.97 189.04 386.71 189.72 385.44 C 191.14 385.00 192.56 384.57 193.97 384.08 C 213.30 374.58 232.33 364.40 251.62 354.77 C 252.55 354.36 253.49 353.96 254.43 353.58 C 264.56 356.25 274.92 353.18 285.02 351.95 Z" />
<path fill="#e0c056" opacity="1.00" d=" M 589.32 408.36 C 604.48 400.46 619.57 392.40 634.99 385.00 C 639.60 396.02 644.52 406.92 648.91 418.04 C 614.47 435.84 580.01 453.61 545.64 471.52 C 542.86 473.00 540.17 474.64 537.58 476.42 C 510.98 476.91 484.38 476.71 457.79 476.51 C 501.59 453.72 545.42 430.98 589.32 408.36 Z" />
</g>
<g id="#d37f81ff">
<path fill="#d37f81" opacity="1.00" d=" M 184.50 222.14 C 185.84 216.54 187.79 211.11 190.08 205.84 C 189.06 213.00 185.60 219.52 184.62 226.70 C 181.56 244.57 180.13 262.97 182.94 280.98 C 183.78 287.27 186.84 293.06 187.20 299.45 C 183.85 290.96 181.59 282.07 180.85 272.97 C 178.71 261.49 180.57 249.84 181.13 238.32 C 181.12 238.00 181.11 237.35 181.10 237.02 C 182.81 232.21 183.28 227.08 184.50 222.14 Z" />
</g>
<g id="#c6dcf4ff">
<path fill="#c6dcf4" opacity="1.00" d=" M 458.83 223.41 C 461.17 222.81 463.61 223.00 466.01 222.99 C 486.17 223.04 506.33 222.94 526.50 223.03 C 527.56 224.50 529.46 223.86 530.97 224.02 C 553.64 223.99 576.31 223.96 598.97 224.04 C 599.34 224.19 600.09 224.51 600.46 224.66 C 600.96 224.91 601.94 225.41 602.44 225.66 C 606.15 227.47 608.19 231.24 610.38 234.54 C 610.92 236.26 611.49 237.98 612.28 239.61 C 612.95 241.27 613.52 242.98 614.23 244.63 C 614.51 245.11 615.07 246.07 615.35 246.55 C 615.92 248.25 616.48 249.95 617.23 251.59 C 618.99 254.41 619.49 257.79 621.33 260.58 C 621.92 262.28 622.52 263.97 623.23 265.63 C 623.50 266.11 624.05 267.08 624.32 267.56 C 625.54 269.81 626.24 272.27 627.22 274.63 C 627.50 275.11 628.07 276.07 628.36 276.55 C 629.11 278.99 630.01 281.38 631.33 283.58 C 631.94 285.27 632.51 286.97 633.22 288.63 C 633.50 289.11 634.07 290.07 634.35 290.55 C 634.93 292.26 635.51 293.96 636.22 295.63 C 636.50 296.11 637.07 297.07 637.35 297.55 C 637.92 299.25 638.49 300.95 639.24 302.58 C 640.61 304.76 641.22 307.28 642.22 309.63 C 642.50 310.11 643.07 311.07 643.35 311.55 C 643.93 313.26 644.51 314.96 645.22 316.63 C 645.50 317.11 646.07 318.07 646.35 318.55 C 646.92 320.24 647.49 321.95 648.24 323.59 C 649.62 325.76 650.21 328.28 651.22 330.63 C 651.50 331.11 652.07 332.07 652.35 332.55 C 652.93 334.25 653.51 335.96 654.22 337.63 C 654.50 338.11 655.07 339.07 655.35 339.55 C 655.92 341.25 656.51 342.96 657.22 344.63 C 657.50 345.11 658.07 346.07 658.35 346.55 C 658.82 347.82 659.19 349.12 659.67 350.40 C 660.21 351.46 660.78 352.51 661.33 353.58 C 661.99 355.57 662.64 357.59 663.77 359.39 C 664.51 361.01 665.08 362.71 665.68 364.39 C 666.21 365.45 666.77 366.51 667.33 367.58 C 667.80 368.84 668.19 370.13 668.68 371.40 C 669.21 372.46 669.78 373.51 670.33 374.58 C 670.93 376.27 671.51 377.97 672.22 379.63 C 672.51 380.11 673.07 381.07 673.35 381.55 C 673.93 383.25 674.50 384.96 675.22 386.63 C 675.50 387.11 676.07 388.07 676.35 388.55 C 676.93 390.25 677.51 391.96 678.22 393.63 C 678.50 394.11 679.07 395.07 679.35 395.55 C 679.93 397.26 680.51 398.96 681.22 400.63 C 681.50 401.11 682.07 402.07 682.35 402.55 C 682.92 404.24 683.49 405.94 684.24 407.59 C 685.62 409.75 686.21 412.28 687.22 414.63 C 687.50 415.11 688.07 416.07 688.35 416.55 C 688.81 417.81 689.18 419.12 689.67 420.40 C 690.21 421.45 690.77 422.51 691.33 423.58 C 691.93 425.27 692.51 426.97 693.22 428.63 C 693.51 429.11 694.07 430.07 694.35 430.55 C 694.93 432.24 695.49 433.95 696.23 435.59 C 697.84 437.99 698.17 440.97 699.77 443.39 C 700.68 445.42 701.35 447.56 702.23 449.63 C 702.51 450.11 703.07 451.07 703.35 451.55 C 703.92 453.25 704.49 454.95 705.23 456.59 C 706.62 458.75 707.20 461.29 708.22 463.63 C 708.50 464.11 709.07 465.07 709.35 465.55 C 709.92 467.26 710.50 468.97 711.22 470.63 C 711.50 471.11 712.07 472.07 712.35 472.55 C 712.92 474.25 713.49 475.95 714.24 477.59 C 715.63 479.74 716.14 482.30 717.28 484.58 C 717.70 485.51 718.04 486.48 718.31 487.49 C 718.69 488.46 719.01 489.46 719.29 490.49 C 720.62 492.57 719.83 495.16 719.95 497.49 C 718.66 498.84 719.12 500.86 718.44 502.49 C 717.50 503.87 716.30 505.10 715.76 506.71 C 715.07 507.39 714.39 508.08 713.71 508.76 C 711.17 509.64 709.36 511.93 706.97 512.96 C 608.72 513.05 510.46 512.97 412.21 513.00 C 412.21 500.82 412.27 488.64 412.16 476.46 C 414.77 476.42 417.37 476.39 419.99 476.42 C 432.59 476.73 445.19 476.68 457.79 476.51 C 484.38 476.71 510.98 476.91 537.58 476.42 C 566.73 476.77 595.89 476.58 625.05 476.58 C 641.28 476.46 657.51 476.80 673.74 476.47 C 666.00 456.77 657.23 437.50 648.91 418.04 C 644.52 406.92 639.60 396.02 634.99 385.00 C 626.59 365.38 618.21 345.75 609.80 326.14 C 609.14 324.56 608.56 322.96 608.01 321.35 C 610.67 316.64 609.64 311.14 609.83 306.00 C 610.11 298.87 607.11 291.84 602.38 286.60 C 598.40 282.20 593.97 277.90 588.29 275.84 C 586.14 271.19 584.45 266.33 582.16 261.76 C 581.21 259.22 578.14 259.79 576.00 259.61 C 555.85 259.91 535.69 259.46 515.54 259.91 C 505.66 259.44 495.77 259.62 485.88 259.68 C 481.78 254.62 478.05 249.27 473.73 244.38 C 469.59 236.83 464.05 230.22 458.83 223.41 Z" />
</g>
<g id="#deb5b8ff">
<path fill="#deb5b8" opacity="1.00" d=" M 180.05 237.61 L 181.13 238.32 C 180.57 249.84 178.71 261.49 180.85 272.97 C 181.59 282.07 183.85 290.96 187.20 299.45 C 187.71 300.99 188.32 302.52 189.10 303.96 C 193.84 312.08 197.58 320.93 203.99 327.95 C 206.27 330.48 209.23 332.22 211.78 334.44 C 211.56 334.89 211.12 335.79 210.89 336.24 L 210.50 337.07 C 208.72 335.16 206.87 333.30 204.87 331.63 C 204.79 331.55 204.61 331.39 204.53 331.31 C 201.84 328.47 199.83 325.06 196.84 322.51 C 196.66 322.04 196.31 321.09 196.13 320.61 C 195.18 318.30 193.23 316.60 191.87 314.53 L 191.87 314.53 C 191.84 314.05 191.78 313.08 191.75 312.60 C 190.75 311.05 189.77 309.50 188.63 308.07 C 188.50 307.91 188.26 307.59 188.14 307.43 C 188.05 306.93 187.89 305.93 187.81 305.43 C 187.51 304.95 186.91 303.97 186.61 303.49 C 186.28 302.50 185.97 301.51 185.70 300.52 C 185.25 299.55 184.92 298.55 184.71 297.51 C 184.24 296.56 183.91 295.56 183.73 294.51 C 182.78 293.38 183.04 291.85 182.83 290.52 C 182.22 289.61 181.85 288.61 181.73 287.51 C 180.43 285.78 181.17 283.52 180.93 281.54 C 179.62 280.59 180.11 278.88 179.84 277.53 C 178.10 275.12 179.35 271.83 179.00 269.06 L 178.00 268.99 C 178.00 262.99 178.00 257.00 178.00 251.01 L 179.00 250.93 C 179.46 247.85 177.90 244.04 179.94 241.47 C 179.97 240.18 180.00 238.89 180.05 237.61 Z" />
</g>
<g id="#756f56ff">
<path fill="#756f56" opacity="1.00" d=" M 493.65 271.48 C 494.02 271.34 494.75 271.07 495.12 270.93 C 500.93 276.40 506.29 283.57 505.93 291.95 C 508.62 306.19 508.04 320.97 505.00 335.11 C 503.75 342.23 498.60 347.72 496.65 354.60 C 491.20 366.02 480.04 373.01 469.61 379.38 C 461.59 382.67 452.77 385.83 444.00 384.00 C 433.48 382.68 423.41 379.20 412.98 377.46 C 412.95 377.04 412.90 376.21 412.88 375.80 C 419.41 376.08 425.72 377.87 432.02 379.43 C 437.92 380.93 443.97 381.69 450.01 382.38 C 453.53 382.85 456.83 381.28 460.16 380.41 C 463.47 379.41 467.23 379.33 469.91 376.87 C 474.90 372.80 480.95 370.14 485.48 365.50 C 489.67 361.13 494.55 356.92 496.43 350.96 C 498.51 345.57 501.72 340.62 502.88 334.89 C 506.70 318.66 506.23 301.58 502.71 285.35 C 501.23 279.81 496.19 276.43 493.65 271.48 Z" />
</g>
<g id="#7b7056ff">
<path fill="#7b7056" opacity="1.00" d=" M 210.89 336.24 C 211.12 335.79 211.56 334.89 211.78 334.44 C 219.11 341.68 229.05 345.24 238.51 348.76 C 243.47 351.45 249.29 351.40 254.43 353.58 C 253.49 353.96 252.55 354.36 251.62 354.77 C 242.47 353.73 234.19 349.71 225.90 345.98 C 220.33 343.67 215.77 339.66 210.89 336.24 Z" />
</g>
<g id="#6db988ff">
<path fill="#6db988" opacity="1.00" d=" M 309.98 365.94 C 314.47 362.38 319.96 360.42 324.88 357.55 C 329.18 357.16 333.52 357.27 337.79 357.89 C 337.67 358.41 337.43 359.45 337.31 359.97 C 353.41 364.55 369.97 367.32 386.16 371.60 C 389.51 372.75 392.96 373.66 396.54 373.48 C 401.82 375.20 407.34 375.83 412.88 375.80 C 412.90 376.21 412.95 377.04 412.98 377.46 C 413.02 407.98 413.26 438.52 412.63 469.04 C 406.44 463.34 400.41 457.48 394.53 451.47 C 367.40 424.24 340.23 397.06 312.94 370.00 C 311.81 368.76 310.78 367.41 309.98 365.94 Z" />
</g>
<g id="#978f77ff">
<path fill="#978f77" opacity="1.00" d=" M 337.79 357.89 C 355.82 361.66 373.71 366.06 391.57 370.58 C 391.20 370.81 390.45 371.28 390.08 371.51 C 392.23 372.16 394.38 372.82 396.54 373.48 C 392.96 373.66 389.51 372.75 386.16 371.60 C 369.97 367.32 353.41 364.55 337.31 359.97 C 337.43 359.45 337.67 358.41 337.79 357.89 Z" />
</g>
</svg>
